<svg width="22px" height="16px" viewBox="0 0 22 16" version="1.1" xmlns="http://www.w3.org/2000/svg" xmlns:xlink="http://www.w3.org/1999/xlink"><path d="M0,8.0539993 L0,4 L0,4 L0,2 L19,2 L19,4 L19,4 L19,14 L19,16 L9.36173053,16 C9.45391056,15.4301731 9.5,14.4301796 9.5,13 L16,13 L16,13 L16,5 L3,5 L3,8.04244018 C2.83745888,8.0419245 2.67079222,8.04166667 2.5,8.04166667 L0.863425926,8.04166667 C0.559987832,8.04327216 0.272179234,8.04738303 -8.37385716e-14,8.0539993 Z" id="Rectangle-4" class="ytp-svg-fill-sideplayer-box" fill="#fff" transform="translate(9.500000, 9.000000) rotate(-180.000000) translate(-9.500000, -9.000000) "></path><path d="M17,0.458333333 C18.8518611,0.458333333 20.0246889,0.500771181 20.5185185,0.585648148 C21.1358056,0.701389468 21.5408941,0.948300579 21.7337963,1.32638889 C21.9035502,1.65046458 21.9922839,2.31789618 22,3.3287037 L22,4 C22,5.21142581 21.9537042,5.990739 21.8611111,6.33796296 C21.7376537,6.80092824 21.4598787,7.11342512 21.0277778,7.27546296 C20.5802447,7.4452169 19.6273221,7.53395058 18.1689815,7.54166667 L17,7.54166667 C15.1481389,7.54166667 13.9753111,7.49922882 13.4814815,7.41435185 C12.8641944,7.29861053 12.4591059,7.05169942 12.2662037,6.67361111 C12.0964498,6.34953542 12.0077161,5.68210382 12,4.6712963 L12,4 C12,2.78857419 12.0462958,2.009261 12.1388889,1.66203704 C12.2623463,1.19907176 12.5401213,0.886574884 12.9722222,0.724537037 C13.4197553,0.554783102 14.3726779,0.466049421 15.8310185,0.458333333 L17,0.458333333 L17,0.458333333 Z M15.75,5.875 L18.875,4 L15.75,2.125 L15.75,5.875 Z" class="ytp-svg-fill-sideplayer-ytlogo" fill="#fff"></path><path d="M15.75,5.875 L18.875,4 L15.75,2.125 L15.75,5.875 Z" id="youtube" class="ytp-svg-fill-sideplayer-ytlogo-play" fill="none"></path></svg>